<svg xmlns="http://www.w3.org/2000/svg" viewBox="0 0 311.81 79.73"><defs><style>.cls-1{fill:#fff;}.cls-2{fill:#009fe3;}</style></defs><g id="Layer_2" data-name="Layer 2"><g id="Ebene_3" data-name="Ebene 3"><path class="cls-1" d="M33.59,74.9h3a10,10,0,0,0,3.91-.57,2,2,0,0,0,1.24-1.91v-3a2,2,0,0,0-1.24-1.91,10,10,0,0,0-3.91-.57H17V79.73h5.24V74.9h0V72.72h0V69.15h12a6.18,6.18,0,0,1,1.82.19.78.78,0,0,1,.58.83V71.7a.78.78,0,0,1-.58.83,6.18,6.18,0,0,1-1.82.19H23.68V74.9h3.61l9.23,4.83h7.64Z"/><path class="cls-1" d="M204.26,66.94h5.32v5h16.65v-5h5.37V79.73h-5.37v-5.5H209.58v5.5h-5.32Z"/><path class="cls-1" d="M168.59,66.94h5.32V79.73h-5.32Z"/><path class="cls-1" d="M100.79,66.94h5.32V77.33h17.18v2.4h-22.5Z"/><path class="cls-1" d="M76.32,66.94h5.32V77.33H98.82v2.4H76.32Z"/><path class="cls-1" d="M46.41,68.48a2,2,0,0,1,1-.93,5.43,5.43,0,0,1,1.75-.47,22.13,22.13,0,0,1,2.68-.14H68.67a22.13,22.13,0,0,1,2.68.14,5.58,5.58,0,0,1,1.76.47,2,2,0,0,1,1,.93A3.44,3.44,0,0,1,74.35,70v6.74a3.47,3.47,0,0,1-.29,1.49,2.09,2.09,0,0,1-1,.93,5.58,5.58,0,0,1-1.76.47,22.38,22.38,0,0,1-2.68.13H51.8a22.38,22.38,0,0,1-2.68-.13,5.43,5.43,0,0,1-1.75-.47,2.07,2.07,0,0,1-1-.93,3.47,3.47,0,0,1-.29-1.49V70A3.44,3.44,0,0,1,46.41,68.48ZM69,77.33V69.22H51.45v8.11Z"/><path class="cls-1" d="M274.8,69.17v2.76h14.29a23,23,0,0,1,2.71.13,5.64,5.64,0,0,1,1.78.47,2.09,2.09,0,0,1,.95.93,3.44,3.44,0,0,1,.29,1.49v1.76a3.47,3.47,0,0,1-.29,1.49,2.09,2.09,0,0,1-.95.93,5.64,5.64,0,0,1-1.78.47,23,23,0,0,1-2.71.13H274.93a23,23,0,0,1-2.7-.13,5.64,5.64,0,0,1-1.78-.47,2.09,2.09,0,0,1-.95-.93,3.33,3.33,0,0,1-.29-1.49v-.35l4.7-.54v1.51h16.2V74.4H275.82a22.38,22.38,0,0,1-2.68-.13,5.58,5.58,0,0,1-1.76-.47,2.09,2.09,0,0,1-.95-.93,3.44,3.44,0,0,1-.29-1.49V70a3.44,3.44,0,0,1,.29-1.49,2,2,0,0,1,.95-.93,5.58,5.58,0,0,1,1.76-.47,22.13,22.13,0,0,1,2.68-.14h13a23.73,23.73,0,0,1,2.59.13,5.85,5.85,0,0,1,1.78.44,2.22,2.22,0,0,1,1,.87,2.79,2.79,0,0,1,.31,1.36V70l-4.71.62V69.17Z"/><path class="cls-1" d="M191.73,79.73H186.4V69.22H175.88V66.94h26.41v2.28H191.73Z"/><path class="cls-1" d="M246.72,77.33H261.9V66.94h5.32v9.77a3.48,3.48,0,0,1-.28,1.49,2.11,2.11,0,0,1-1,.93,5.51,5.51,0,0,1-1.75.47,22.56,22.56,0,0,1-2.69.13H247.07a22.38,22.38,0,0,1-2.68-.13,5.43,5.43,0,0,1-1.75-.47,2.07,2.07,0,0,1-1-.93,3.47,3.47,0,0,1-.29-1.49V66.94h5.33Z"/><path class="cls-1" d="M129,66.94h5.51l5.81,8.58,6.08-8.58h3.73l6.21,8.58,5.55-8.58h4.75l-8.83,12.79h-3.6l-6.3-8.85-6.39,8.85h-3.68Z"/><path class="cls-1" d="M.71,59.16H38.76a20.39,20.39,0,0,0,20.4-20.39.73.73,0,0,1,.25-.55.71.71,0,0,1,1,.09l10,12a.7.7,0,0,0,1,.08l.09-.08,10-12a.71.71,0,0,1,.54-.25.7.7,0,0,1,.71.71V58.45a.71.71,0,0,0,.71.71h22.25a.71.71,0,0,0,.71-.71V41.52a.69.69,0,0,1,.25-.54.7.7,0,0,1,1,.09l15,17.84a.73.73,0,0,0,.55.25h29a.71.71,0,0,0,.71-.71.7.7,0,0,0-.16-.46L129.38,30a.72.72,0,0,1,0-.92L152.84,1.17a.71.71,0,0,0-.09-1,.71.71,0,0,0-.46-.17h-29a.73.73,0,0,0-.55.25l-15,17.84a.67.67,0,0,1-.54.26.71.71,0,0,1-.71-.71V.71a.71.71,0,0,0-.71-.71H83.16a.73.73,0,0,0-.55.25L71.54,13.45l-.09.09a.71.71,0,0,1-1-.09L59.37.25A.69.69,0,0,0,58.83,0H36.21a.71.71,0,0,0-.71.71V33.13a2.37,2.37,0,0,1-2.37,2.37H.71a.71.71,0,0,0-.71.71V58.45A.71.71,0,0,0,.71,59.16Z"/><circle class="cls-2" cx="14.2" cy="14.2" r="14.2"/><path class="cls-2" d="M311.64,29.12,293.38,7.35a.73.73,0,0,0-.55-.25H157.46a.73.73,0,0,0-.55.25L138.65,29.12a.7.7,0,0,0,0,.92l18.26,21.77a.73.73,0,0,0,.55.25H292.83a.73.73,0,0,0,.55-.25L311.64,30A.7.7,0,0,0,311.64,29.12ZM184.2,39.29l-14-7.36h-5.45V28.62h16a8.35,8.35,0,0,0,2.88-.33,1.19,1.19,0,0,0,.78-1.2v-2.3a1.19,1.19,0,0,0-.78-1.17,8.28,8.28,0,0,0-2.88-.34H162.5v16h-7.93V19.87h29.72a14.77,14.77,0,0,1,6,.9,3,3,0,0,1,1.86,2.91v4.51A3,3,0,0,1,190.31,31a14.77,14.77,0,0,1-6,.9h-4.54l16.07,7.36Zm21.88,0H198V19.87h8.06Zm47.47-4.92a13.61,13.61,0,0,1-5.66,3.43A24.36,24.36,0,0,1,242.25,39q-3.37.34-8.63.34h-10V35.66h8.29q8.38,0,11.88-1.44c2.34-1,3.5-2.56,3.5-4.78a4.88,4.88,0,0,0-2.9-4.52q-2.91-1.53-8.59-1.53H221.37v15.9h-8.06V19.87H235.7q9.56,0,14.71,2.5t5.14,7.1A7,7,0,0,1,253.55,34.37Zm42.17,4.92H259.83V19.87h35.53v3.31H267.89V35.66h27.83Zm-2.07-11.74v3.31H270.1V27.55Z"/><path class="cls-1" d="M309,50.63a4.25,4.25,0,1,1-4.24-4.14A4.16,4.16,0,0,1,309,50.63Zm-7.44,0a3.2,3.2,0,0,0,3.23,3.3,3.16,3.16,0,0,0,3.15-3.28,3.19,3.19,0,1,0-6.38,0Zm2.55,2.17h-1V48.66a8,8,0,0,1,1.59-.13,2.57,2.57,0,0,1,1.44.31,1.14,1.14,0,0,1,.4.9,1.05,1.05,0,0,1-.86,1v0a1.23,1.23,0,0,1,.76,1,3.37,3.37,0,0,0,.3,1h-1a3.51,3.51,0,0,1-.33-1c-.08-.46-.33-.66-.86-.66h-.45Zm0-2.35h.46c.53,0,1-.18,1-.61s-.28-.63-.89-.63a2.67,2.67,0,0,0-.53,0Z"/></g></g></svg>