<svg xmlns="http://www.w3.org/2000/svg" viewBox="0 0 364 104.23"><defs><style>.a{fill:#009ee2;}.b{fill:#1d1d1b;}.c{fill:#d40000;}.d{fill:none;}</style></defs><path class="a" d="M1.13,58.93H39.18a20.4,20.4,0,0,0,20.4-20.4.69.69,0,0,1,.25-.54.71.71,0,0,1,1,.09l10,12a.7.7,0,0,0,1,.09A.24.24,0,0,0,72,50l10-12a.7.7,0,0,1,1.25.45V58.22a.71.71,0,0,0,.71.71H106.2a.71.71,0,0,0,.71-.71V41.29a.69.69,0,0,1,.25-.54.7.7,0,0,1,1,.08l15,17.84a.72.72,0,0,0,.54.26h29a.71.71,0,0,0,.71-.71.76.76,0,0,0-.16-.46l-23.46-28a.71.71,0,0,1,0-.91l23.46-28a.71.71,0,0,0-.09-1,.76.76,0,0,0-.46-.16h-29a.71.71,0,0,0-.54.25l-15,17.84a.71.71,0,0,1-1.25-.45V.48a.71.71,0,0,0-.71-.71H83.57A.71.71,0,0,0,83,0L72,13.22l-.08.09a.71.71,0,0,1-1-.09L59.79,0a.69.69,0,0,0-.54-.25H36.62a.71.71,0,0,0-.71.71V32.9a2.36,2.36,0,0,1-2.36,2.36H1.13A.71.71,0,0,0,.42,36V58.22A.71.71,0,0,0,1.13,58.93Z" transform="translate(0 0.23)"/><circle class="b" cx="14.62" cy="14.2" r="14.2"/><path class="b" d="M312.06,28.89,293.8,7.12a.73.73,0,0,0-.55-.25H157.88a.73.73,0,0,0-.55.25L139.07,28.89a.69.69,0,0,0,0,.91l18.26,21.77a.71.71,0,0,0,.55.26H293.25a.71.71,0,0,0,.55-.26L312.06,29.8A.69.69,0,0,0,312.06,28.89ZM184.62,39.06l-14-7.36h-5.45V28.39h16a8.35,8.35,0,0,0,2.88-.33,1.2,1.2,0,0,0,.78-1.21v-2.3a1.19,1.19,0,0,0-.78-1.16,8,8,0,0,0-2.88-.34h-18.2v16H155V19.63h29.72a14.77,14.77,0,0,1,6,.91,3,3,0,0,1,1.86,2.91V28a3,3,0,0,1-1.86,2.84,14.8,14.8,0,0,1-6,.9h-4.54l16.07,7.36Zm21.88,0h-8.06V19.63h8.06ZM254,34.13a13.59,13.59,0,0,1-5.66,3.44,24.89,24.89,0,0,1-5.64,1.15q-3.37.35-8.63.34H224V35.43h8.29c5.58,0,9.55-.48,11.88-1.45s3.5-2.55,3.5-4.77a4.87,4.87,0,0,0-2.9-4.52q-2.91-1.53-8.59-1.53H221.79v15.9h-8.06V19.63h22.39q9.56,0,14.71,2.5t5.14,7.1A7,7,0,0,1,254,34.13Zm42.17,4.93H260.25V19.63h35.53v3.31H268.3V35.43h27.84Zm-2.07-11.74v3.31H270.52V27.32Z" transform="translate(0 0.23)"/><path class="a" d="M309.4,50.39a4.25,4.25,0,1,1-4.24-4.13A4.16,4.16,0,0,1,309.4,50.39Zm-7.44,0a3.2,3.2,0,0,0,3.23,3.31,3.17,3.17,0,0,0,3.15-3.28,3.19,3.19,0,1,0-6.38,0Zm2.55,2.17h-1V48.43a8,8,0,0,1,1.59-.13,2.61,2.61,0,0,1,1.43.3,1.16,1.16,0,0,1,.41.91,1.05,1.05,0,0,1-.86,1v.05a1.23,1.23,0,0,1,.76,1,3,3,0,0,0,.3,1h-1a3.22,3.22,0,0,1-.33-1c-.08-.45-.33-.65-.86-.65h-.45Zm0-2.34H305c.52,0,.95-.18.95-.61s-.27-.63-.88-.63a2.67,2.67,0,0,0-.53.05Z" transform="translate(0 0.23)"/><path d="M3.54,70.27q.15,0,6.86,0a52.78,52.78,0,0,1,7,.22,1.43,1.43,0,0,1,.89,1.22v.5l-1,.15-.83.11-.71.08-.62.1v-1h-10l0,.92,0,.93,6,.07c3,0,4.7.07,5.26.1a3.27,3.27,0,0,1,1.23.25,1.4,1.4,0,0,1,.7.72,4.74,4.74,0,0,1,.17,1.49,3.2,3.2,0,0,1-.35,1.8,2.62,2.62,0,0,1-1.56.72,64.89,64.89,0,0,1-6.7.17,64.38,64.38,0,0,1-6.67-.17c-1.21-.25-1.81-.77-1.81-1.55v-.15l.05-.49,1.26-.15c.75-.1,1.22-.15,1.4-.15s.26,0,.3.09a1.14,1.14,0,0,1,.07.36l0,.49q1.8,0,5.4,0l5.43,0V75.18H10.58c-3.39,0-5.56-.09-6.53-.2s-1.57-.4-1.78-.85a5.84,5.84,0,0,1,0-3A1.84,1.84,0,0,1,3.54,70.27Z" transform="translate(0 0.23)"/><path d="M21.13,70.9l-.05-.72H38.8l0,.72-.05.74-3.56,0-3.59,0,.09,3.53c0,1.58.08,2.76.11,3.54L30,78.74l-1.77,0,0-3.48,0-3.51-3.51,0-3.48,0Z" transform="translate(0 0.23)"/><path d="M42.56,70.52a24.42,24.42,0,0,1,4.08-.17H51q5.59,0,6.78.06a4.35,4.35,0,0,1,1.56.24,1.48,1.48,0,0,1,.82.93,16.41,16.41,0,0,1,.15,2.93,18.44,18.44,0,0,1-.14,2.92,1.26,1.26,0,0,1-.68.91,5.36,5.36,0,0,1-2.09.46q-1.39.09-6.6.09h-2c-2.56,0-4.23,0-5-.1A3.77,3.77,0,0,1,42,78.31a1.33,1.33,0,0,1-.58-.89,22.44,22.44,0,0,1-.11-2.91c0-1.36,0-2.2,0-2.52a1.71,1.71,0,0,1,.25-.79A1.74,1.74,0,0,1,42.56,70.52Zm14.16,4,0-2.74-5.78,0H49.2c-2.74,0-4.13,0-4.18.08a14.94,14.94,0,0,0-.1,2.74v2.68H56.74Z" transform="translate(0 0.23)"/><path d="M79.19,73a11.24,11.24,0,0,0-1.37.2c-.76.13-1.22.2-1.37.2s-.29,0-.32-.09a1.55,1.55,0,0,1,0-.51v-.37a.54.54,0,0,0-.46-.6,19.51,19.51,0,0,0-2.73-.1H71.33a33,33,0,0,0-4.78.15c-.13.08-.2.51-.2,1.29v1.42l.05,2.59H76l0-.9,0-.87,1.12.1,1,.08.69,0h.6l0,.87v.27a1.74,1.74,0,0,1-.67,1.57A3.87,3.87,0,0,1,77,78.8c-.86.06-2.8.09-5.8.09q-5.06,0-6.29-.15a2.55,2.55,0,0,1-1.77-.82,1.44,1.44,0,0,1-.24-.75c0-.33,0-1.2,0-2.59a21.36,21.36,0,0,1,.13-3.1,1.24,1.24,0,0,1,.75-.86,4.11,4.11,0,0,1,1.39-.22c.7,0,2.53-.07,5.5-.1l5.18,0c1.09,0,1.79,0,2.1,0a2.24,2.24,0,0,1,.83.25,1.26,1.26,0,0,1,.62.58,2.6,2.6,0,0,1,.18,1.11,2.38,2.38,0,0,1-.05.65C79.46,73,79.36,73,79.19,73Z" transform="translate(0 0.23)"/><path d="M82,78.64V70.05h3.58v1.59a4.9,4.9,0,0,0,.1,1.62c.07,0,1-.38,2.81-1.14s3-1.27,3.51-1.52l1-.5,2.69,0,.87,0h.75a4.15,4.15,0,0,1,1,0,5.13,5.13,0,0,1-1.21.62c-.8.37-1.65.74-2.52,1.12l-1.35.58q-.94.47-2.16,1c-.75.35-1.12.56-1.12.65a10,10,0,0,0,2,.07h2.64a15,15,0,0,1,1.89.05s.37.77,1,2.22,1,2.18,1,2.21-.83,0-2.49,0H93.5c-.08-.25-.22-.63-.42-1.15s-.34-.9-.43-1.17h-7v2.32Z" transform="translate(0 0.23)"/><path d="M107.31,70.9l0-.72H125l0,.72,0,.74-3.56,0-3.59,0,.09,3.53c0,1.58.08,2.76.11,3.54l-1.79-.05-1.77,0-.05-3.48,0-3.51-3.51,0-3.48,0Z" transform="translate(0 0.23)"/><path d="M132.1,70.27l6.62,0a21.21,21.21,0,0,1,4.48.22,1.54,1.54,0,0,1,.74.67,4.76,4.76,0,0,1,.2,1.42c0,.07,0,.16,0,.29s0,.21,0,.26c0,.94-.21,1.55-.64,1.83a6.77,6.77,0,0,1-2.82.51l-1.87.07,1,.5.77.36,1.26.57,1.18.54a10.26,10.26,0,0,1,2.22,1.17,8,8,0,0,1-2.24.12h-2.29l-.82-.45a4,4,0,0,0-1-.44,22.06,22.06,0,0,1-2.34-1.15l-2.16-1.14H131.6v-1.4l4-.07c1.94,0,3.24-.09,3.89-.15s1-.18,1.13-.35a1.45,1.45,0,0,0,.13-.75,1.94,1.94,0,0,0-.17-1,.83.83,0,0,0-.49-.2c-.24,0-.87,0-1.88,0q-2.23,0-4.11,0l-3,0q0,1.17,0,3.54c0,1.59,0,2.78,0,3.58l-1.77,0-1.77,0V70.3Z" transform="translate(0 0.23)"/><path d="M148,78.76l8.61-8.58h3.53l4.36,4.26c1.94,1.9,3.4,3.33,4.38,4.27l-2,0-2,.05-1.94-2h-7.11l-.08-.29a2,2,0,0,1,0-.75l0-.42,2.81,0a20.26,20.26,0,0,0,2.79-.13,17.9,17.9,0,0,0-1.59-1.71l-1.57-1.65c-2.22,2.33-4.45,4.62-6.67,6.9l-1.79,0Z" transform="translate(0 0.23)"/><path d="M187.77,73a11.24,11.24,0,0,0-1.37.2c-.76.13-1.22.2-1.37.2s-.29,0-.32-.09a1.55,1.55,0,0,1-.05-.51v-.37a.54.54,0,0,0-.46-.6,19.51,19.51,0,0,0-2.73-.1h-1.56a33,33,0,0,0-4.78.15c-.14.08-.2.51-.2,1.29v1.42l0,2.59h9.6l0-.9,0-.87,1.12.1,1,.08.69,0h.6l0,.87v.27a1.74,1.74,0,0,1-.67,1.57,3.87,3.87,0,0,1-1.84.46c-.86.06-2.79.09-5.8.09q-5.06,0-6.3-.15a2.55,2.55,0,0,1-1.76-.82,1.44,1.44,0,0,1-.24-.75c0-.33,0-1.2,0-2.59a22,22,0,0,1,.12-3.1,1.24,1.24,0,0,1,.75-.86,4.11,4.11,0,0,1,1.39-.22c.7,0,2.53-.07,5.5-.1l5.17,0c1.1,0,1.8,0,2.11,0a2.29,2.29,0,0,1,.83.25,1.33,1.33,0,0,1,.63.58,2.79,2.79,0,0,1,.17,1.11,2.38,2.38,0,0,1-.05.65C188,73,187.94,73,187.77,73Z" transform="translate(0 0.23)"/><path d="M190.61,78.64V70.05h3.58v1.59a4.9,4.9,0,0,0,.1,1.62c.07,0,1-.38,2.81-1.14s3-1.27,3.51-1.52l1-.5,2.69,0,.87,0h.75a4.15,4.15,0,0,1,1,0,5.42,5.42,0,0,1-1.21.62c-.8.37-1.65.74-2.53,1.12l-1.34.58q-.95.47-2.16,1c-.75.35-1.12.56-1.12.65a10,10,0,0,0,2,.07h2.64a15,15,0,0,1,1.89.05s.37.77,1,2.22,1,2.18,1,2.21-.83,0-2.49,0h-2.46c-.08-.25-.22-.63-.42-1.15s-.34-.9-.43-1.17h-7v2.32Z" transform="translate(0 0.23)"/><path d="M209.59,78.76V70.18h15.66v.69q0,.67-.15.72l-6,0-5.83,0-.05,2.74,0,2.71h12.19v1.67Zm4.78-5.15c.07,0,1.09,0,3.06,0h2.09l5,0V75l-5.18,0-5.15,0v-.69Q214.22,73.69,214.37,73.61Z" transform="translate(0 0.23)"/><path d="M232.47,70.27l6.61,0a21.34,21.34,0,0,1,4.49.22,1.64,1.64,0,0,1,.74.67,4.76,4.76,0,0,1,.2,1.42c0,.07,0,.16,0,.29s0,.21,0,.26a2.09,2.09,0,0,1-.64,1.83,6.77,6.77,0,0,1-2.82.51l-1.87.07,1,.5.77.36,1.26.57,1.18.54a10.26,10.26,0,0,1,2.22,1.17,8,8,0,0,1-2.24.12h-2.29l-.83-.45a3.87,3.87,0,0,0-1-.44A22.06,22.06,0,0,1,237,76.72l-2.17-1.14H232v-1.4l3.95-.07c2,0,3.24-.09,3.9-.15s1-.18,1.13-.35a1.45,1.45,0,0,0,.13-.75,1.81,1.81,0,0,0-.18-1,.77.77,0,0,0-.48-.2c-.24,0-.87,0-1.88,0-1.5,0-2.86,0-4.11,0l-3,0q0,1.17,0,3.54c0,1.59,0,2.78,0,3.58l-1.77,0-1.77,0V70.3Z" transform="translate(0 0.23)"/><path class="c" d="M245.72,49.16a3.13,3.13,0,0,1,1.09.68l.33.38,0,.11-1-.45-.77.11,0-.08.27-.26c-.26-.07-.37-.19-.33-.38ZM248,50.62l.11,0,2.51,2.47-.19,0a14.35,14.35,0,0,0-2.7-2.19l0-.11Zm.22,1.3.22.36-.09,0-.15-.25Zm.67,3.26c0,.12-.22.18-.56.19l0-.19Zm.6-1.2c.37.15.54.29.5.42l0,.11-.7-.07-.13-.33C249.14,54,249.26,53.94,249.46,54Zm5.67-1.24.43.81-.25.15.81.52-.13.06,0,.11c.19.76.41,1.18.64,1.29L257,55l-.15-.24,0-.11.24-.15c.37.09.53.4.49,1l-.13.08.37.18c0,.14-.14.18-.33.13l.19.47c-.08.32-.31.43-.71.34l0,.2.27.59,1.37-.51.2.05-1.42.71c.27.06.35.28.26.66l.63.36.56-.08c.37.17.54.31.51.45a1.68,1.68,0,0,0-1.21.22l-.28-.07-.39-.51-.39-.09-.19.28.41.51-.72.43-.24-.35.13-.09,0-.09-.11,0-.23.15-.14.59.27.16.5,0,.13.33c-.05.2-.2.27-.47.21l-.09.39.56,1.16.47-.61-.2-.55,0-.11c0-.14.15-.18.35-.13a.67.67,0,0,1,.35.71c-.56.84-.9,1.27-1,1.3l.14.66.2,0,0-.11,0-.31.19.05,0,.19c.11,0,.31-.2.58-.69l.19,0v.53l-.13.07.09.13.44-.1.06.11,0,.11-.11.06.09,0,.24-.15.4.1-.05.19-.86.1,0,.2.3.07-.27.26a.58.58,0,0,0,.48.53l-.05.2-.87-.21.13.33-.2-.05-.07-.1-.11,0,0,.09.24.36-.07.3-.11,0-.28-.58c-.32-.08-.5,0-.55.17l-.2-.05,0-.19-.09,0-.37.21,0,.11.11,0c1.18.28,1.87.72,2.05,1.32l-.05.2-.28-.07-.37-.62-1.76-.83-.43.43.06.64-.3.85-.09.4.1.44-.36,1.05a2.66,2.66,0,0,0,.48,1.87,4.61,4.61,0,0,0,.79,1.94,8.14,8.14,0,0,1-.11,3.49l.16.67c.19,0,.27.13.24.26L256,79.13a2.24,2.24,0,0,0,.34,1.21l-.05.2-.33.54c.23,2.22.51,3.49.85,3.82.13,0,.26-.21.38-.73l.35-.12.07.11.36-.63,0-.2-.08,0-.07.28-.2,0,.07-.29a5.64,5.64,0,0,0,1.72-2.48l-.15-.25.24-1,2.09-2.3.59-1.62.05-.2V74.6l.09-.38a11.79,11.79,0,0,1,1.76-3.51v-.42l.12-.08,0-.09V69.7l.16-.28.19-1.19q.65-2,1.17-1.89a9.21,9.21,0,0,0,1-2.06c.25.06.54-.39.86-1.34a1.13,1.13,0,0,0-.7-.59,5.22,5.22,0,0,0-1.84.73l-.15-.25c.07-.26.75-.52,2.06-.76l.15-.26-.19-.05,0-.2.59.14.08-.3-.74-.8,0-.09c0-.13.14-.18.33-.13l.5.53.33,0-.17-.65.14-.08,0-.09-.08-.55c.19.05.25.2.19.46l.2.05q.63-1,.84-.93l.09.11-.07.31c0,.13-.15.17-.35.12l-.11.07-.05.2.06.13,0,.08.13-.06.2.05.07.11.08,0-.11.09-.07.28.2,0c.05-.21.33-.38.84-.52l.63.87.24-.15.06.13,0,.08-.11.07,0,.11.28.07c0,.13-.17.17-.42.11l0,.09.18,0a11.27,11.27,0,0,0,4.05-.89c.18-.19.76-.26,1.72-.22l0,.63-.55.17L275.3,61a9.48,9.48,0,0,1-3.9.74c-.56-.13-1.1.4-1.63,1.59-.28,1.18-.73,1.9-1.34,2.15l-.92,1.75-.06.61c-.1,0-.35.47-.74,1.49l-.13.06-.09,0,.06.13,0,.18c-.53,1.12-1,1.63-1.41,1.54l-.2.46-.58,2.45a5.29,5.29,0,0,0-1.55,2.64,9.33,9.33,0,0,0-1.89,3.07,10.51,10.51,0,0,0-1.75,3.1,19.85,19.85,0,0,0-2.5,3.13l-.2.37-.11.07-.11,0,.06.64L256,88l.06.13-.24.15-.06-.13-.11,0-.31,0,0-.19-.19,0,.06.11,0,.11q-.33-.08-1.08,1.5l-.08,0-.09-.14-.09,0a4.47,4.47,0,0,0,.93-2.16,3.23,3.23,0,0,0-.49-1.43L254,84.55c.07-.28-.14-.56-.63-.86a16.59,16.59,0,0,1-1.07-3.8l-.19,0a1.73,1.73,0,0,0-.41-.91l.17-1.12.16-.67-.17-1.9a16.2,16.2,0,0,1-.62-4.81,9.24,9.24,0,0,0-.56-4.17,26,26,0,0,1-.53-5.6l0-.11.25-.66a3.87,3.87,0,0,1-.34-2.88c-.21-.05-.26-.44-.14-1.17.38-.52.67-.76.89-.71l.54.34.2,0-.08-.13,0-.09.14-.08-.05-.31-.87-.21-.46-.22,0-.2.3,0,1.42.54.05-.19a.61.61,0,0,1-.47-.53l.17,0a1.16,1.16,0,0,0,.61.47l.11,0-.28-.59,0-.09.89,1,.11,0,.16-.26c-.19,0-.28-.55-.27-1.52l-.19-.44,0-.11.2,0a2.08,2.08,0,0,1,.4,1.34l1-.18,0-.11-.15-.25-.24.15L254,53.4h.41l-.19-.46A1.26,1.26,0,0,1,255.13,52.74Zm-4.3.64.2,0c.28.19.41.36.41.51l-.11,0C251,53.66,250.81,53.49,250.83,53.38Zm.41,2.27,0,.09.18,0-.1.4-.24.24.78.51.14-.08.08-.38-.45-.73Zm1.09-2.44.15.24,0,.11-.25.15c-.1,0-.17-.18-.21-.47l.13-.08Zm.77-1.58.11,0,.23.26.14-.06.08,0,.09.11,0,.11-.69.26-.11,0-.13-.24.08-.3Zm.7-.34.15.24-.1.07-.11,0-.16-.24.14-.06Zm2.55,1.94.09,0,.15.25,0,.11-.24.13-.19-.05-.16-.22ZM256,88.14l.11,0a7.25,7.25,0,0,1,1.22,2.26l-.24.15ZM256.7,53c.24.15.35.27.33.38l0,.1-.19,0-.22-.38Zm.74.89.06.11,0,.11-.11.06-.2,0,0-.09Zm.87,5.9.09,0c.13,0,.18.25.16.66q-.3.39-.51.39l-.11,0-.15-.24.14-.59Zm.69-4.28.09.11,0,.11h-1.25C257.86,55.54,258.26,55.46,259,55.53Zm-.41,10,.08.14,0,.08-.13.07-.18,0,0-.09Zm.28,1.94c.46.19.69.38.7.56l0,.11-.31-.07-.39-.51Zm.61-8.25.2,0a2.76,2.76,0,0,1,.95,1.15l0,.11-.35.21-.11,0a.67.67,0,0,1-.32-.79q-.29-.08-.39-.51Zm.22-3.56.39.1,0,.19-.4-.09Zm.43.82.09,0-.05.2-.28-.07Zm.71,4.41.07.13,0,.08-.24.15-.07-.1,0-.11Zm.3.9.24.26.24-.15.2,0,.45.73-.16.27.07.12-.6.37c-.26-.06-.34-.32-.23-.77l-.09-.14,0-.17a.59.59,0,0,1-.47-.53l.11-.09Zm3.54,1.25.06.13,0,.09c-.39.53-.68.77-.89.72l-.08-.12,0-.19A2.23,2.23,0,0,1,264.68,63.07Zm1.26-3.63c.39.28.61.54.64.78l-.24.15-.2,0-.45-.73ZM267,57l.29.07.24.35-.08.31C267.12,57.55,267,57.31,267,57Zm.36,1.12q.48.12.51,1.26l-.64-1.19Zm2.57.5c.13,0,.17.14.13.33l-.4.32-.16-.24,0-.2Zm.91.93,0,.11-.48.3,0-.11Zm.64-.56.11,0,0,.11-.59.37,0-.11C271.22,59.14,271.38,59,271.52,59Zm1-.8,0,.11-.25.15,0-.11ZM273.88,57l.06.13-.38.33-.09,0,0-.11C273.65,57.06,273.78,57,273.88,57Zm.82,2.7-.07.28-.25.15-.34-.29,0-.2Zm2.2-.11.17,0,.15.25-.11.07-.28-.07Zm3.19.85.3.49c-.2.28-.37.41-.5.39l-.29-.07c-.33-.08-.49-.18-.46-.29l-1.2-.1C278,60.55,278.72,60.41,280.09,60.41Z" transform="translate(0 0.23)"/><path class="c" d="M262.15,85.67l.37.09-1.91.7-.18,0-.29-.46Zm1.52-34.86-.09.38a7.43,7.43,0,0,0-2.7.87L260.5,52l-.15-.2,0-.18A7.51,7.51,0,0,1,263.67,50.81Zm35.69-8.67L303,43q7.31,3.12,8.82,5.94,3.29,4.69,1.66,11.57l-.08.34A21.2,21.2,0,0,1,310.45,66c-2,2.35-3.45,3.55-4.3,3.58l.14.24,0,.18a9,9,0,0,1-4.42,2.41l-.29-.43c-.44-.08-1.19.44-2.28,1.56l-5.83,2.66c0,.2-2.27,1.16-6.66,2.87q-1.47,1.16-12.15,4.22l-2.25.61,0,.19.34.08a55.65,55.65,0,0,0,11.66-.33c.13-.58,2.88-.56,8.23,0a16.54,16.54,0,0,1,4.42.1l3.27.77,7.88.88,3.46.82.83-.36q7.62,2,7,4.56l-.83.35-1.28-.3a6.28,6.28,0,0,0-1.91-1.8l-2,.47L314.55,91a2.17,2.17,0,0,1-2.48.76c-1.22-.29-1.93-.06-2.11.69-.25-.06-.46.27-.63,1l-1.3.64-.14-.23-.15,0c-.66-.15-1.46.24-2.42,1.17-.18.73.35,1.24,1.58,1.53l.35.84,0,.18c-.29.46-1,.56-2.17.28l-.22.11-.05.19.15.23-.05.19-.83.16L304,99c.43,1,.81,1.54,1.16,1.63L305,101q-4.65-4-5.15-5.06l.05-.19-1.56,0c0-.57-1.59-1.77-4.69-3.62l-.24.15-.9-.22-.47-.5-1.65-.4-.11-.22-.23.14-1.28-.3-.28-.47-1.37.08L286,89.77l-1.69-.2-.11-.23-.19,0c-.57.29-1.93.35-4.09.18l0,.19-2.28-.94h-.79l-9.92-3.5-3.1.21c0-.17.58-.36,1.64-.56l0-.19-.19,0-4.8-1.5.09-.37,6.15.66.94.23.42-.26-.58-.73.45-.25.09-.38c0-.26-.58-1-1.78-2.36q.28-1.17-2.4-1.92l.08-.34c.22-.34.62-.45,1.22-.3l.19,0a3.73,3.73,0,0,1,1.59,1.33l.08-.34a3.83,3.83,0,0,0-.64-3.64l0-.19.42-.26c.88.21,1.07,2.06.59,5.54a11.77,11.77,0,0,0,4.24,2.51,20.78,20.78,0,0,1,3.95-2.91q1-.07,8.12-5c.1-.45,1.54-1.65,4.3-3.62q9-7.14,10.5-13.49a4.18,4.18,0,0,0-3.32-2.89l-1.46-.35c-3.55.12-6.26.75-8.15,1.92q-1,1.19-1.44,1.2l.11.23-.05.19-.76,1.72.23,2.2-.61.21c-.46-.29-.66-.53-.62-.71l.23-.14a3,3,0,0,0-1.15-3.17l-1,.16-.25-.46,0,.19.1.22,0,.19-.19.11-.19,0c-.25-.06-.31-.33-.2-.8l-.19,0-.66.44-.12.53.2.64-.08.34c-.09.37-.87.45-2.35.23a2.15,2.15,0,0,0-.83,1.15l-.35,1.47-.46.25-.18,0c-.24-.11-.41-.46-.5-1.07l1.65-2.1-.15-.24a3.87,3.87,0,0,1,2.31,0l.13-.56L278,56.9c.3-.69.57-1,.82-.95l-.46-2.06-.19,0c-.17.73-.38,1.06-.63,1l.21-.9-.61.25.1.22-.17.72c-.74.45-1.16.87-1.25,1.25l-.52-.13c-.25-.06-.33-.28-.24-.65s.53-.63.88-.55l.13-.56V53l.15,0-.3-1.06.23-.15,0-.15c-.38-.08-.64-.6-.79-1.53l.05-.19c.06-.25.32-.32.8-.21l.23-.14.05-.19-.69-1.11-.75-.18-.62.25-.37-.09.51-.47-.15-.23-1.84-.24-.91-.22.09-.37,1.32.15.86.21,1.24.45.63-1-.15-.2.09-.37c.09-.38.56-.47,1.41-.26a1.47,1.47,0,0,1,1-1.11c-.09.38,0,.59.24.65l.19,0a7.46,7.46,0,0,0,4.68-1l3.7-1q7.39-2.1,11.6-1.1ZM261.8,75.75,262,76l-.05.18-.23.15-.19,0-.14-.23,0-.19.24-.14Zm1.08,2L263,78l0,.19-.23.15-.19,0-.14-.23,0-.19.23-.14Zm.49,7.62.38.08-.47.29-.37-.09Zm2.23-12.56.1.22,0,.19-.2.15-.19-.05-.14-.23.05-.19.23-.14Zm4.64-22.93,1.84.43-.09.38-.37-.09a5.14,5.14,0,0,0-3,.44c-.63-.15-.95-.43-1-.83S268.62,49.7,270.24,49.88Zm.09,26.39.34.08-.13.52-.34-.08Zm2.35-18.12.14.23c-.65,1-1.08,1.45-1.28,1.4l-.3-.43Zm.88-2.89.29.47-.47.28-.28-.46Zm.36,1.83.11.23,0,.18-.19.16-.38-.09,0-.19Zm2.25,8.23.67.55-.74.58-.37-.09-.4-.65Zm3.33-22.89.37.09.09,1.17-.09.38c-.06.25-.39.3-1,.16-.08.35-.25.49-.5.43l-.18,0,0-.19a2.15,2.15,0,0,0,1.09-1.25ZM279,54.06l-.32.52.19.05.46-.29-.14-.23Zm1.79-13.22-.08.34-.32.52-.34-.08,0-.19Zm-.24,17.24.19,0,.43.7-.09.37-.46.25Zm2.82-19.92.15,0c.73.25,1.06.53,1,.83l-.05.19c-.11.24-1.08.57-2.93,1l-.19,0,.05-.19Q282.87,38.24,283.41,38.16Zm.29,27,.29.43-.46.28-.25-.45Zm1-24.58.37.09.3.43-.23.14-.57-.13Zm1-2.65.15.23,0,.15-.23.14-.19,0-.14-.23,0-.15.24-.15Zm.27,1.21.38.09.28.46,0,.16-.47.28-.28-.46Zm1.71-3,.15,0-.65.4-.18,0Zm2.81-1.28.14.23-.13.52c-.07.33-.9.53-2.48.61l-.19,0C289.15,35.18,290,34.74,290.54,34.86Zm-2.11,26.62.18.05.29.46-.46.29-.19-.05-.25-.45Zm12.45,17.39A1.87,1.87,0,0,0,300,80l-.76,1.56-.9-.22c-1.64-.67-2.42-1.18-2.34-1.5l.23-.15,0-.18-.28-.47.23-.14,0-.19-.15-.19.23-.15.57.14,1.23.49-.14-.24,0-.18.23-.15.34.08,1.05.45Zm2.62-.53-.08.38-2.39.19C301.11,78.56,301.94,78.37,303.5,78.34Zm7-.44.29.43q-.24,1-6.81.33l.08-.38c.7.17,2.74,0,6.1-.46Zm2.28.9,0,.19-.43.29-.28-.46.23-.14Zm1.71-1.5.37.09.29.47c-.06.27-.85.27-2.34,0l.05-.19C312.94,77.37,313.48,77.25,314.5,77.3Z" transform="translate(0 0.23)"/><path class="c" d="M308.08,92.83l.07,0,.09.14c-.07.17-.16.24-.29.21l-.09-.1,0,0v0l0-.13Zm8.75-1.1a3,3,0,0,1,.93.9l-.06.26-.18.28v0l.39.18v0s.14-.11.37-.19l0,0v0a1.16,1.16,0,0,1,.52.84,1.08,1.08,0,0,0,0,.48l-.1.42-.2.35v0a.9.9,0,0,1,0,.52l-.3.44-.07.27-.25.21v0l-.06.42-.53.43c-.1,0-.43.16-1,.57h-.2l-.15,0v0l.07.21,0,.08c0,.13-.22.18-.59.18l-.27-.07-.24-.13-.34-.08a3.2,3.2,0,0,1-1-.68l-.33-.08h-.2c-.23-.14-.34-.23-.33-.28h0v0c-.07,0-.2-.14-.38-.37l-.15-.07h0a.56.56,0,0,1-.44.18.78.78,0,0,1-.34-.56c-.3-.2-.42-.43-.36-.68v-.12h.12L311,95.1l0-.11a.41.41,0,0,1,.42-.1l.05-.23,0-.07s.06,0,.16,0l0-.08-.11-.22v0c.05-.09.11-.13.19-.11l-.2-.33c0-.2-.15-.39-.58-.57l-.93-.42a.8.8,0,0,1-.34-.24q-.72-.17-.78.09l-.05,0h0l-.33-.11-.1,0c-.28-.12-.42-.22-.4-.29l0-.19a.76.76,0,0,1,.6-.18l.23.06a8.74,8.74,0,0,1,1.69.88,8.3,8.3,0,0,1,1.45.74l.68-.2.27-.61-.08-.34a.61.61,0,0,0,.17-.23l0-.24a1.17,1.17,0,0,1,.47-.16c0-.1.22-.19.5-.28a1.6,1.6,0,0,1,.7-.07l.11,0a.54.54,0,0,0,.27.19h0a.4.4,0,0,0,.44-.18l.52.13.13,0,.08,0Zm-8.34-.3c.05,0,.07.06,0,.16l-.09.06-.11,0c-.05,0-.08-.08-.07-.21Zm.07,1.4h0v0l0,0-.08,0,0-.07Z" transform="translate(0 0.23)"/><path class="c" d="M348.26,53.82l.3.07.16,2.18.65,0,.4.3.05-.19,1.24-1.05-.05.18c-.28.44-.5.64-.65.6l.29,1.46c-.3.56-.66.8-1.08.7l-.15-.24-.07.34.66.55.76-.37-.09.38-.18.11-.06.23a1.44,1.44,0,0,1,1,.58c.08-.32.43-.69,1.06-1.09l.63.15,0,.18-1.35,1,.75.18.54-.27.45.11-.48.68-.1-.26-.3-.08-.05.23.3.07,0,.15-.2.19,0,.15c.2,0,.26.27.16.67l2.47,0,.12,0c-.76.61-1.35.87-1.77.77q-.15.6,2.67,2.94l.14.27-.08.33-.19,0a9.56,9.56,0,0,0-2.43-2l-.45-.11.27.86-.05.22-.14-.27-.75-.18-.09.38c.7.16,1.2.86,1.49,2.1l.11,0-.09.38-1,.15-.32-.47-.19.15-.94-.22-.05.18.18.6-.05.19-.15,0-.4-.29-.09.38a2.83,2.83,0,0,0,.36,1.82l-.2.16-.15,0-.43-.85c-.33-.08-.63.3-.9,1.13l.45.11,0,.18-.42.26-.11,0-.4-.46-.49,0-.22-.4c-.14.6-.43.85-.85.75-.06.25.26.71,1,1.38l0,.19a4,4,0,0,0-1,1.51l-.07,1-.19.11-.15,0,0-.56-.15,0-.49,1.23-.05.19c.33.08.46.23.41.46l0,.22-.39.31c.07-.33-.36-1-1.3-2.06l-.15,0-.73.38-.21-.45-.49-.11-.69.07-.06-.25-.15,0c-.25-.06-.85.2-1.8.77l-.4-.34-.06.23c-.05.25-.5.28-1.32.08-.17.28-1,.53-2.45.77-.06.28-.53.43-1.41.46-.1.4-1.13,1.11-3.08,2.12-.58.66-1.09.94-1.51.83l.25,1.81-.18.75a2.23,2.23,0,0,0-.75,1.17l-.26,1.09q.09,6.28,2,8,2.88,5.93,7.39,7l1,.07,1.12.66q.93.23,4.4-2.84.4.09,1.11-1.32,1.08.25,4.28-3l.39-2.45a2.84,2.84,0,0,1,.83-1.35l.21-.9,1.93-6.13.12-1.16.19-.11.05-.23,0-.56.21-.19-.23-.37.18-.75.2-.19a2.46,2.46,0,0,0-.6-1.49l-.5.12-.21-.65.2-.15-.21-.45.19-.15.05-.19c1.4,1.11,2.09,2,2.06,2.84l0,.18-.19.12c.05.91.16,1.38.34,1.42l.27-.48L356,78.3l.5-.59.07-1,.28-.52L355.62,74l-.19.16,0-.19.28-.49-.32-.67.11,0,.66.75a5.12,5.12,0,0,1,2.63-.92l-.12.52c-1.43.11-2.19.38-2.29.81L358,76.87c.77.19,1.09,1.3,1,3.33l-.26,1.12.38,1.2-.56,1.06-.68,4.87a7.54,7.54,0,0,0-1.1,2.64c-.25-.06-.66.69-1.21,2.25a1.82,1.82,0,0,0-1.75,1.33c-.29,1.23-.79,1.76-1.52,1.58A10.51,10.51,0,0,1,348.42,99q-3.17,4.13-5.26,3.63-1,1.3-4.18.55l-2.46.17q-2.44-.57-7.88-5.71l-2.17-2.26a14,14,0,0,0-2.53-3.69q-2.55-5.49-2.24-6.76l0-.19.68-3.69.42-.29L323,80l.14-2.11.09-.38a5,5,0,0,0,1.37-1.58c-.5-.11-.72-.3-.66-.55l.12-.53,2.7-4c1.08-2.42,1.74-3.61,2-3.58q1.64-1.55,2.88-1.26a12.22,12.22,0,0,0,3.58-4.22l1.56-.59,2.57-1.29,2.6-.57c1.15-.29,1.75-.54,1.8-.77l.09-.37-.6-1.65.15,0c.45.88.83,1.35,1.13,1.42l.62-.6-.1-.26.19-.12-.21-.45,0-.18.15,0c.2,0,.26.26.17.64l.49.11.93-.57-.18-.6.06-.22,1,.47c.09-.37.3-.52.62-.45L348.22,54ZM333.71,90.11l.17.43-.53.27-.06-.25,0-.15Zm1.79-1.52-.13.56-.39.3-.15,0,.09-.38Zm1.91-1.89.45.11,0,.19a1,1,0,0,1-1.12.52l-.07-.21.05-.19Zm2.64-2.27.15,0-.09.37.12,0c-.05.2-.5.54-1.36,1l-.3-.07.05-.19Zm1.85-1.11.19.05,0,.19-.38.3-.34-.08Zm.89-27.51.15,0,.21.45-.15,0Zm1.36-1,.18,0,.22.41-.24.18-.11,0-.13-.27Zm.6,26.07.13.27,0,.15-.42.3-.15,0-.18-.43Zm.57-28.33.41,1.09-.15,0-.61-.94.24-.14Zm1.12,27.39.09.26,0,.15-.2.19-.16,0-.09-.26,0-.15.21-.19Zm3.79,20.13.11.19,0,.22-1.49.76-.07-.18,0-.22C349.35,100.21,349.83,100,350.23,100.05Zm-.55-46.69.11.23-.23.93-.34-.08.12-1,.15-.16Zm1.11,23.94.15,0,.21.44-.19.12-.3-.07Zm.14-4.8.45.1,0,.15-.35.32-.15-.24ZM352.2,55l.15,0-.09.37-.38.27-.3-.07,0-.15Zm-.43,24.88.34.08-.05.23-.41.22Zm.1-11.79.11,0c1.19.91,1.72,1.62,1.6,2.12.25.06.78.83,1.59,2.32l-.33-.08a8.21,8.21,0,0,1-2.4-3.46c-.5-.12-.7-.37-.61-.74Zm.73,5.8.11,0,.33.63-.06.23-.3-.07-.17-.44Zm.69-17.28.15,0-.05.19c-.05.2-.29.33-.72.38l0-.15Zm2.08-1.25-.05.18-.85.75-.6-.14,0-.15A1.35,1.35,0,0,1,355.37,55.31Zm.73,4.25.12.19-.06.23-.92.53-.4-.29,0-.15C354.93,59.84,355.33,59.67,356.1,59.56Zm.11,11.25.21.45-.58.26-.21-.45Zm5.58,2.87.15.24-.05.18c-.06.25-.66.31-1.82.17l.05-.19C360.21,73.7,360.76,73.57,361.79,73.68Zm-1,3.66.3.07,0,.19-.39.3-.3-.07,0-.19Zm1.1-2.64.15,0,.21.45-.45-.11Zm1.84,1.79.1.22,0,.19-.54.27-.1-.26,0-.15Z" transform="translate(0 0.23)"/><rect class="d" y="0.23" width="364" height="104"/></svg>